<svg height='100px' width='100px' fill="#848484" xmlns="http://www.w3.org/2000/svg"
  xmlns:xlink="http://www.w3.org/1999/xlink" xml:space="preserve" version="1.1"
  style="shape-rendering:geometricPrecision;text-rendering:geometricPrecision;image-rendering:optimizeQuality;"
  viewBox="0 0 105833.32 105833.32" x="0px" y="0px" fill-rule="evenodd" clip-rule="evenodd">
  <g>
    <path
      d="M2858.88 61721.8c-678.99,0 -717.33,-1036.41 0,-1036.41l23779.49 0c878.34,0 1743.03,-40.42 2619.36,-108.96 3381.48,-264.57 5651.45,-2307.33 7636.43,-4865.25 1462.84,-1885.07 4438.54,-4262.61 6842.54,-2501.43 967.6,708.89 1358.45,1877.26 1239.39,3044.56 1875.3,-1193.95 5374.7,-1285.64 5927.4,1355.67 237.87,1136.76 -311.71,813.65 899.83,545.01 2283.59,-506.41 4035.97,1751.95 3069.82,4209 -633.49,1611.08 -1727.44,3395.1 -2853.77,4809.09 -367.6,461.52 -413.95,324.13 32.14,720.99 518.86,461.58 1051.41,896.8 1610.16,1317.59 1392.97,1049.08 2720.59,1657.13 4026.79,1810.97 1290.93,152.05 2581.1,-138.9 3914.67,-885.61 1169.83,-655.02 2841.3,-900.2 4191.78,-1098.28 1883.99,-276.34 2685.57,-427.76 3701.81,-2187.99 854.49,-1480.04 1788.03,-1787.35 2659.56,-2074.23 1325.59,-436.39 1656.28,-929.77 2011.52,-2330.63 120.32,-474.5 286.9,-960.37 541.39,-1387.67 344.38,-578.21 501.43,-389.02 -202.27,-690.45 -951.48,-407.56 -1907.31,-862.9 -2867.48,-1377.01 -611.76,-326.27 -115.68,-1256.46 496.1,-930.18 2627.81,1407.02 5606.14,2502.31 8476.06,3300.67 4491.82,1249.33 6848.44,-3551.77 2367.93,-5869.92 -6416.28,-3319.55 -11481.76,-7768.73 -17169.79,-10807.15 -1162.19,-620.82 -2237.09,-993.7 -3569.88,-1095.2 -693.3,-51.63 -614.82,-1105.84 78.54,-1054.2 754.8,57.49 1437.86,190.2 2085.63,393.3 637.67,199.92 488.88,215.33 1164.58,89.14 2136.06,-398.99 4432.74,-927.93 6396.02,-1751.41 1388.74,-582.49 4266.93,-2474.29 2047.57,-4087.36 -2237.49,-1626.26 -6722.26,-224.67 -9283.53,353.9 -3543.92,800.56 -7020.77,1585.98 -11145.07,1699.64 -3869.19,106.61 -7954.73,3527.01 -12969.12,4296.82 -998.97,153.33 -787.24,-113.63 -1199.59,785.72 -241.71,527.18 -515.62,1068.04 -815.04,1595.34 -1097.39,1932.58 -2982.34,4639.4 -5589.56,4066.97 -2865.16,-629.03 -1892.17,-3940.71 -1180.68,-5849.49 567.17,-1521.62 1055.7,-3089.15 1557.18,-4634.11 864.43,-2662.98 1978.13,-3936.54 4767.84,-4260.88 3095.4,-359.89 7387.88,-1556.94 10127.18,-1517.46 1791.91,25.82 4448.51,968.93 6723.92,1183.86 2506.58,236.78 5251.54,496.1 7174.34,1627.45 664.07,390.74 355.62,420.56 1150.59,246.24 469.42,-102.93 1053.53,-243.98 1166.51,-269.5 2966.37,-670.07 7501.98,-2094.1 10135.15,-180.26 941.48,684.28 1405,1687.69 1164.22,2740.25 -163.51,714.85 -493.04,658.82 324.19,658.82l26855.38 0c696.06,0 696.06,1058.34 0,1058.34l-27712.63 0c-683.77,0 -458.05,-11.95 -982.97,389.71 -503.88,385.57 -1135.98,748.41 -1906.6,1071.64 -1636,686.2 -3664.81,1197.06 -5186.57,1525.15 -734.45,158.33 -761.76,55.02 -111.38,442.91 5648.41,3369.07 10116.71,7099.22 16387.25,10343.38 5607.55,2901.3 2578.91,9413.95 -3132.73,7825.34 -1176.33,-327.24 -2353.75,-691.09 -3528.96,-1111.38 -621.63,-222.29 -726.34,-395.27 -1148.11,272.12 -227.06,359.27 -369.76,805.99 -460.35,1163.24 -441.14,1739.52 -1026.73,2526.11 -2706.06,3078.89 -689.08,226.82 -1427.2,469.81 -2076.64,1594.69 -1190.1,2061.37 -2244.76,2383.56 -4462.49,2708.87 -1264.32,185.44 -2829.13,414.97 -3827.98,974.26 -1534.73,859.34 -3034.75,1192.39 -4551.31,1013.77 -1268.18,-149.37 -2533.52,-655.89 -3827.11,-1510.9 -548.36,-362.41 -329.98,-338.77 -920.89,-48.05 -1770.17,870.99 -3884.04,1370.11 -5819,1090.25 -1668.01,-241.26 -3124.71,-1050.46 -4014.65,-2594.75 -194.96,-338.34 -141.37,-217.75 -538.81,-15.27 -1400.38,713.52 -2704.35,845.69 -3834.36,667.2 -1267.83,-200.26 -2309.91,-794.19 -3024.05,-1398.27 -672.39,-568.71 -261.27,-536.55 -1056.66,-348.09 -3250.45,770.42 -6285.3,-1264.49 -7291.68,-4361.88 -180.44,-555.37 -315.07,-999.89 -394.73,-1358.44 -97.4,-438.4 -46.36,-472.69 -642.18,-472.69l-23345.58 0zm5684.39 -3468.15c-348.02,0 -348.02,-529.16 0,-529.16l14242.23 0c348.02,0 348.02,529.16 0,529.16l-14242.23 0zm72890.06 -14304.7c-348.02,0 -348.02,-529.16 0,-529.16l15577.29 0c348.02,0 348.02,529.16 0,529.16l-15577.29 0zm-29471.51 25263.64c-225.18,-188.57 -446.77,-380.98 -665.53,-577.12 -409.71,-367.38 -246.76,-317.71 -646.38,53.7 -241.54,224.46 -483.27,405.69 -717.13,550.93 -578.39,382.88 -1161.31,-497.67 -582.9,-880.56 1699.27,-1132.28 3796.6,-4491.11 4539.34,-6380.03 966.1,-2456.91 -1509.52,-4017.49 -3648.27,-1612.04 -1359.79,2197.57 -3385.36,4817.29 -5160.88,6630.41 -342.95,350.21 -683.68,660.73 -1021.13,934.91 -330.78,268.78 -376.82,172.36 -158.37,551.41 708.67,1229.72 1889.46,1877.11 3249.83,2073.87 1579.81,228.5 3298.56,-142.06 4773.88,-789.79 581.6,-255.31 501.94,-166.8 37.54,-555.69zm-9274.78 -8702.14c-1616.68,2237.92 -3647.87,5049.14 -6092.79,6532.55 -524.71,318.34 -623.49,210.68 -35.87,641.19 569.84,417.52 1326.31,794.56 2216.6,935.18 1212.11,191.46 2681.34,-58.93 4285.56,-1246.81 413.6,-306.26 836.61,-675.05 1267.13,-1114.68 1705.13,-1741.23 3740.1,-4355.04 5035.85,-6477.2 2054.89,-3365.68 -2312.47,-4462.34 -4758.5,-1845.4 -555.89,594.71 -1496.96,1992.36 -1917.98,2575.17zm425.42 -6449.08c-1842.51,-1349.78 -4325.62,931.87 -5383.22,2294.73 -2180.66,2810.07 -4687.86,4984.65 -8392.97,5274.53 -331.12,25.9 -668.91,56.87 -1056.1,74.84 -511.17,23.72 -544.83,16.77 -398.83,396.75 87.39,227.43 191.14,590.2 364.61,1124.11 870.83,2680.2 3521.1,4416.92 6317.1,3588.28 2887.26,-855.69 5375.53,-4300.13 7268.23,-6920.14 540.77,-748.59 1288.82,-1612.36 1737.42,-2540.84 524.56,-1085.7 609.26,-2511.67 -456.24,-3292.26zm-2378.37 -11614.41c4751.09,-789.27 8768.41,-4157.5 12820.57,-4269.17 2508.95,-69.15 4788.02,-397.05 6996.82,-825.78 803.21,-155.88 823.66,-120.61 -6.47,-425.17 -1634.4,-599.66 -3710.76,-795.91 -5638.5,-978.02 -2215.55,-209.27 -4954.5,-1155.48 -6637.1,-1179.72 -2630.16,-37.88 -6978.08,1162.56 -9994.9,1513.32 -2359.87,274.37 -3149.78,1278.21 -3883.14,3537.42 -506.26,1559.7 -1001.06,3139.17 -1573.7,4675.45 -437.45,1173.58 -1576.22,4010.7 415.86,4448.03 2024.46,444.46 3635.11,-2121.84 4448.54,-3554.35 873.53,-1538.35 1512.29,-3175.43 1735.17,-4174.2 149.52,-676.99 1178.93,-449.68 1029.4,227.38 -32.97,147.74 -74.08,307.93 -122.83,478.51 -196.18,686.56 -354.63,653.36 410.28,526.3z">
    </path>
  </g>
</svg>
